# xmcd CD database file
#
# Track frame offsets:
#	150
#	34872
#	57169
#	89185
#	119028
#	152128
#	167840
#
# Disc length: 2618 seconds
#
# Revision: 0
# Processed by: cddbd v1.5.1PL0 Copyright (c) Steve Scherf et al.
# Submitted via: CDex 1.51
#
DISCID=610a3807
DTITLE=Didier Guedes - Les Dilemmes
DYEAR=1998
DGENRE=Jazz
TTITLE0=Grigri
TTITLE1=Brésiblues
TTITLE2=Lalala
TTITLE3=Trottinette
TTITLE4=Allez-y
TTITLE5=Boeuf loc lac
TTITLE6=Fretless
EXTD=YEAR: 1998
EXTT0=
EXTT1=
EXTT2=
EXTT3=
EXTT4=
EXTT5=
EXTT6=
PLAYORDER=
